<svg width="18" height="18" viewBox="0 0 18 18" fill="none" xmlns="http://www.w3.org/2000/svg">
<path d="M15.9073 11.9175C15.4302 13.0459 14.6839 14.0402 13.7337 14.8135C12.7835 15.5868 11.6584 16.1156 10.4566 16.3536C9.25489 16.5916 8.01313 16.5316 6.83992 16.1789C5.66672 15.8261 4.59778 15.1913 3.72658 14.33C2.85537 13.4687 2.20842 12.4071 1.84229 11.238C1.47616 10.0689 1.40199 8.82788 1.62626 7.62349C1.85054 6.4191 2.36644 5.28798 3.12885 4.32903C3.89126 3.37009 4.87698 2.6125 5.99981 2.12251M16.4999 9C16.4999 8.01509 16.3059 7.03982 15.929 6.12987C15.5521 5.21993 14.9996 4.39314 14.3032 3.6967C13.6067 3.00026 12.7799 2.44781 11.87 2.0709C10.9601 1.69399 9.98479 1.5 8.99988 1.5V9H16.4999Z" stroke="white" stroke-opacity="0.25" stroke-width="2" stroke-linecap="round" stroke-linejoin="round"/>
</svg>
