<svg width="119" height="23" viewBox="0 0 119 23" fill="none" xmlns="http://www.w3.org/2000/svg">
<rect y="0.400024" width="119" height="22" rx="11" fill="#6147FF"/>
<path d="M8.518 11.514C8.518 10.562 8.73733 9.70802 9.176 8.95202C9.624 8.19602 10.226 7.60802 10.982 7.18802C11.7473 6.75869 12.5827 6.54402 13.488 6.54402C14.524 6.54402 15.4433 6.80069 16.246 7.31402C17.058 7.81802 17.646 8.53669 18.01 9.47002H16.092C15.84 8.95669 15.49 8.57402 15.042 8.32202C14.594 8.07002 14.076 7.94402 13.488 7.94402C12.844 7.94402 12.27 8.08869 11.766 8.37802C11.262 8.66736 10.8653 9.08269 10.576 9.62402C10.296 10.1654 10.156 10.7954 10.156 11.514C10.156 12.2327 10.296 12.8627 10.576 13.404C10.8653 13.9454 11.262 14.3654 11.766 14.664C12.27 14.9534 12.844 15.098 13.488 15.098C14.076 15.098 14.594 14.972 15.042 14.72C15.49 14.468 15.84 14.0854 16.092 13.572H18.01C17.646 14.5054 17.058 15.224 16.246 15.728C15.4433 16.232 14.524 16.484 13.488 16.484C12.5733 16.484 11.738 16.274 10.982 15.854C10.226 15.4247 9.624 14.832 9.176 14.076C8.73733 13.32 8.518 12.466 8.518 11.514ZM24.3161 16.498C23.4108 16.498 22.5755 16.288 21.8101 15.868C21.0541 15.4387 20.4521 14.846 20.0041 14.09C19.5655 13.3247 19.3461 12.466 19.3461 11.514C19.3461 10.562 19.5655 9.70802 20.0041 8.95202C20.4521 8.19602 21.0541 7.60802 21.8101 7.18802C22.5755 6.75869 23.4108 6.54402 24.3161 6.54402C25.2308 6.54402 26.0661 6.75869 26.8221 7.18802C27.5875 7.60802 28.1895 8.19602 28.6281 8.95202C29.0668 9.70802 29.2861 10.562 29.2861 11.514C29.2861 12.466 29.0668 13.3247 28.6281 14.09C28.1895 14.846 27.5875 15.4387 26.8221 15.868C26.0661 16.288 25.2308 16.498 24.3161 16.498ZM24.3161 15.112C24.9601 15.112 25.5341 14.9674 26.0381 14.678C26.5421 14.3794 26.9341 13.9594 27.2141 13.418C27.5035 12.8674 27.6481 12.2327 27.6481 11.514C27.6481 10.7954 27.5035 10.1654 27.2141 9.62402C26.9341 9.08269 26.5421 8.66736 26.0381 8.37802C25.5341 8.08869 24.9601 7.94402 24.3161 7.94402C23.6721 7.94402 23.0981 8.08869 22.5941 8.37802C22.0901 8.66736 21.6935 9.08269 21.4041 9.62402C21.1241 10.1654 20.9841 10.7954 20.9841 11.514C20.9841 12.2327 21.1241 12.8674 21.4041 13.418C21.6935 13.9594 22.0901 14.3794 22.5941 14.678C23.0981 14.9674 23.6721 15.112 24.3161 15.112ZM41.1046 6.67002V16.4H39.5086V9.73602L36.5406 16.4H35.4346L32.4526 9.73602V16.4H30.8566V6.67002H32.5786L35.9946 14.3L39.3966 6.67002H41.1046ZM44.7983 6.67002V16.4H43.2023V6.67002H44.7983ZM54.8878 16.4H53.2918L48.4898 9.13402V16.4H46.8938V6.65602H48.4898L53.2918 13.908V6.65602H54.8878V16.4ZM64.0256 9.47002C63.7736 8.98469 63.4236 8.62069 62.9756 8.37802C62.5276 8.12602 62.0096 8.00002 61.4216 8.00002C60.7776 8.00002 60.2036 8.14469 59.6996 8.43402C59.1956 8.72336 58.7989 9.13402 58.5096 9.66602C58.2296 10.198 58.0896 10.814 58.0896 11.514C58.0896 12.214 58.2296 12.8347 58.5096 13.376C58.7989 13.908 59.1956 14.3187 59.6996 14.608C60.2036 14.8974 60.7776 15.042 61.4216 15.042C62.2896 15.042 62.9943 14.7994 63.5356 14.314C64.0769 13.8287 64.4083 13.1707 64.5296 12.34H60.8756V11.066H66.2376V12.312C66.1349 13.068 65.8643 13.7634 65.4256 14.398C64.9963 15.0327 64.4316 15.5414 63.7316 15.924C63.0409 16.2974 62.2709 16.484 61.4216 16.484C60.5069 16.484 59.6716 16.274 58.9156 15.854C58.1596 15.4247 57.5576 14.832 57.1096 14.076C56.6709 13.32 56.4516 12.466 56.4516 11.514C56.4516 10.562 56.6709 9.70802 57.1096 8.95202C57.5576 8.19602 58.1596 7.60802 58.9156 7.18802C59.6809 6.75869 60.5163 6.54402 61.4216 6.54402C62.4576 6.54402 63.3769 6.80069 64.1796 7.31402C64.9916 7.81802 65.5796 8.53669 65.9436 9.47002H64.0256ZM74.6544 16.498C74.0011 16.498 73.4131 16.386 72.8904 16.162C72.3678 15.9287 71.9571 15.602 71.6584 15.182C71.3598 14.762 71.2104 14.272 71.2104 13.712H72.9184C72.9558 14.132 73.1191 14.4774 73.4084 14.748C73.7071 15.0187 74.1224 15.154 74.6544 15.154C75.2051 15.154 75.6344 15.0234 75.9424 14.762C76.2504 14.4914 76.4044 14.146 76.4044 13.726C76.4044 13.3994 76.3064 13.1334 76.1104 12.928C75.9238 12.7227 75.6858 12.564 75.3964 12.452C75.1164 12.34 74.7244 12.2187 74.2204 12.088C73.5858 11.92 73.0678 11.752 72.6664 11.584C72.2744 11.4067 71.9384 11.136 71.6584 10.772C71.3784 10.408 71.2384 9.92269 71.2384 9.31602C71.2384 8.75602 71.3784 8.26602 71.6584 7.84602C71.9384 7.42602 72.3304 7.10402 72.8344 6.88002C73.3384 6.65602 73.9218 6.54402 74.5844 6.54402C75.5271 6.54402 76.2971 6.78202 76.8944 7.25802C77.5011 7.72469 77.8371 8.36869 77.9024 9.19002H76.1384C76.1104 8.83536 75.9424 8.53202 75.6344 8.28002C75.3264 8.02802 74.9204 7.90202 74.4164 7.90202C73.9591 7.90202 73.5858 8.01869 73.2964 8.25202C73.0071 8.48536 72.8624 8.82136 72.8624 9.26002C72.8624 9.55869 72.9511 9.80602 73.1284 10.002C73.3151 10.1887 73.5484 10.338 73.8284 10.45C74.1084 10.562 74.4911 10.6834 74.9764 10.814C75.6204 10.9914 76.1431 11.1687 76.5444 11.346C76.9551 11.5234 77.3004 11.7987 77.5804 12.172C77.8698 12.536 78.0144 13.026 78.0144 13.642C78.0144 14.1367 77.8791 14.6034 77.6084 15.042C77.3471 15.4807 76.9598 15.8354 76.4464 16.106C75.9424 16.3674 75.3451 16.498 74.6544 16.498ZM84.3357 16.498C83.4303 16.498 82.595 16.288 81.8297 15.868C81.0737 15.4387 80.4717 14.846 80.0237 14.09C79.585 13.3247 79.3657 12.466 79.3657 11.514C79.3657 10.562 79.585 9.70802 80.0237 8.95202C80.4717 8.19602 81.0737 7.60802 81.8297 7.18802C82.595 6.75869 83.4303 6.54402 84.3357 6.54402C85.2503 6.54402 86.0857 6.75869 86.8417 7.18802C87.607 7.60802 88.209 8.19602 88.6477 8.95202C89.0863 9.70802 89.3057 10.562 89.3057 11.514C89.3057 12.466 89.0863 13.3247 88.6477 14.09C88.209 14.846 87.607 15.4387 86.8417 15.868C86.0857 16.288 85.2503 16.498 84.3357 16.498ZM84.3357 15.112C84.9797 15.112 85.5537 14.9674 86.0577 14.678C86.5617 14.3794 86.9537 13.9594 87.2337 13.418C87.523 12.8674 87.6677 12.2327 87.6677 11.514C87.6677 10.7954 87.523 10.1654 87.2337 9.62402C86.9537 9.08269 86.5617 8.66736 86.0577 8.37802C85.5537 8.08869 84.9797 7.94402 84.3357 7.94402C83.6917 7.94402 83.1177 8.08869 82.6137 8.37802C82.1097 8.66736 81.713 9.08269 81.4237 9.62402C81.1437 10.1654 81.0037 10.7954 81.0037 11.514C81.0037 12.2327 81.1437 12.8674 81.4237 13.418C81.713 13.9594 82.1097 14.3794 82.6137 14.678C83.1177 14.9674 83.6917 15.112 84.3357 15.112ZM95.3142 16.498C94.4088 16.498 93.5735 16.288 92.8082 15.868C92.0522 15.4387 91.4502 14.846 91.0022 14.09C90.5635 13.3247 90.3442 12.466 90.3442 11.514C90.3442 10.562 90.5635 9.70802 91.0022 8.95202C91.4502 8.19602 92.0522 7.60802 92.8082 7.18802C93.5735 6.75869 94.4088 6.54402 95.3142 6.54402C96.2288 6.54402 97.0642 6.75869 97.8202 7.18802C98.5855 7.60802 99.1875 8.19602 99.6262 8.95202C100.065 9.70802 100.284 10.562 100.284 11.514C100.284 12.466 100.065 13.3247 99.6262 14.09C99.1875 14.846 98.5855 15.4387 97.8202 15.868C97.0642 16.288 96.2288 16.498 95.3142 16.498ZM95.3142 15.112C95.9582 15.112 96.5322 14.9674 97.0362 14.678C97.5402 14.3794 97.9322 13.9594 98.2122 13.418C98.5015 12.8674 98.6462 12.2327 98.6462 11.514C98.6462 10.7954 98.5015 10.1654 98.2122 9.62402C97.9322 9.08269 97.5402 8.66736 97.0362 8.37802C96.5322 8.08869 95.9582 7.94402 95.3142 7.94402C94.6702 7.94402 94.0962 8.08869 93.5922 8.37802C93.0882 8.66736 92.6915 9.08269 92.4022 9.62402C92.1222 10.1654 91.9822 10.7954 91.9822 11.514C91.9822 12.2327 92.1222 12.8674 92.4022 13.418C92.6915 13.9594 93.0882 14.3794 93.5922 14.678C94.0962 14.9674 94.6702 15.112 95.3142 15.112ZM109.849 16.4H108.253L103.451 9.13402V16.4H101.855V6.65602H103.451L108.253 13.908V6.65602H109.849V16.4Z" fill="#181B28"/>
</svg>
