<svg width="96" height="22" viewBox="0 0 96 22" fill="none" xmlns="http://www.w3.org/2000/svg">
<rect width="96" height="22" rx="11" fill="#6147FF"/>
<path d="M21.146 6.27V16H19.55V6.27H21.146ZM31.2354 16H29.6394L24.8374 8.734V16H23.2414V6.256H24.8374L29.6394 13.508V6.256H31.2354V16ZM41.7173 6.27L38.0633 16H36.2153L32.5473 6.27H34.2553L37.1393 14.362L40.0373 6.27H41.7173ZM48.918 14.012H44.844L44.144 16H42.478L45.964 6.256H47.812L51.298 16H49.618L48.918 14.012ZM48.47 12.71L46.888 8.188L45.292 12.71H48.47ZM59.0997 6.27V7.572H56.5097V16H54.9137V7.572H52.3097V6.27H59.0997ZM62.312 7.558V10.414H65.672V11.716H62.312V14.698H66.092V16H60.716V6.256H66.092V7.558H62.312ZM71.2358 6.27C72.2718 6.27 73.1771 6.47067 73.9518 6.872C74.7358 7.264 75.3378 7.83333 75.7578 8.58C76.1871 9.31733 76.4018 10.1807 76.4018 11.17C76.4018 12.1593 76.1871 13.018 75.7578 13.746C75.3378 14.474 74.7358 15.034 73.9518 15.426C73.1771 15.8087 72.2718 16 71.2358 16H68.0578V6.27H71.2358ZM71.2358 14.698C72.3745 14.698 73.2471 14.39 73.8538 13.774C74.4605 13.158 74.7638 12.29 74.7638 11.17C74.7638 10.0407 74.4605 9.15867 73.8538 8.524C73.2471 7.88933 72.3745 7.572 71.2358 7.572H69.6538V14.698H71.2358Z" fill="#181B28"/>
</svg>
