<svg width="138" height="12" viewBox="0 0 138 12" fill="none" xmlns="http://www.w3.org/2000/svg">
<path d="M13.712 0.268V11.5H10.976V4.764L8.464 11.5H6.256L3.728 4.748V11.5H0.992V0.268H4.224L7.376 8.044L10.496 0.268H13.712ZM21.1515 11.612C20.0955 11.612 19.1248 11.3667 18.2395 10.876C17.3648 10.3853 16.6662 9.70267 16.1435 8.828C15.6315 7.94267 15.3755 6.95067 15.3755 5.852C15.3755 4.75333 15.6315 3.76667 16.1435 2.892C16.6662 2.01733 17.3648 1.33467 18.2395 0.844C19.1248 0.353333 20.0955 0.108 21.1515 0.108C22.2075 0.108 23.1728 0.353333 24.0475 0.844C24.9328 1.33467 25.6262 2.01733 26.1275 2.892C26.6395 3.76667 26.8955 4.75333 26.8955 5.852C26.8955 6.95067 26.6395 7.94267 26.1275 8.828C25.6155 9.70267 24.9222 10.3853 24.0475 10.876C23.1728 11.3667 22.2075 11.612 21.1515 11.612ZM21.1515 9.116C22.0475 9.116 22.7622 8.81733 23.2955 8.22C23.8395 7.62267 24.1115 6.83333 24.1115 5.852C24.1115 4.86 23.8395 4.07067 23.2955 3.484C22.7622 2.88667 22.0475 2.588 21.1515 2.588C20.2448 2.588 19.5195 2.88133 18.9755 3.468C18.4422 4.05467 18.1755 4.84933 18.1755 5.852C18.1755 6.844 18.4422 7.63867 18.9755 8.236C19.5195 8.82267 20.2448 9.116 21.1515 9.116ZM34.3056 11.5L31.9696 7.26H31.3136V11.5H28.5776V0.268H33.1696C34.055 0.268 34.807 0.422666 35.4256 0.731999C36.055 1.04133 36.5243 1.468 36.8336 2.012C37.143 2.54533 37.2976 3.14267 37.2976 3.804C37.2976 4.55067 37.0843 5.21733 36.6576 5.804C36.2416 6.39067 35.623 6.80667 34.8016 7.052L37.3936 11.5H34.3056ZM31.3136 5.324H33.0096C33.511 5.324 33.8843 5.20133 34.1296 4.956C34.3856 4.71067 34.5136 4.364 34.5136 3.916C34.5136 3.48933 34.3856 3.15333 34.1296 2.908C33.8843 2.66267 33.511 2.54 33.0096 2.54H31.3136V5.324ZM47.2551 0.268V2.46H44.2791V11.5H41.5431V2.46H38.5671V0.268H47.2551ZM56.2442 3.82C56.0416 3.44667 55.7482 3.164 55.3642 2.972C54.9909 2.76933 54.5482 2.668 54.0362 2.668C53.1509 2.668 52.4416 2.96133 51.9082 3.548C51.3749 4.124 51.1082 4.89733 51.1082 5.868C51.1082 6.90267 51.3856 7.71333 51.9402 8.3C52.5056 8.876 53.2789 9.164 54.2602 9.164C54.9322 9.164 55.4976 8.99333 55.9563 8.652C56.4256 8.31067 56.7669 7.82 56.9802 7.18H53.5082V5.164H59.4602V7.708C59.2576 8.39067 58.9109 9.02533 58.4202 9.612C57.9402 10.1987 57.3269 10.6733 56.5802 11.036C55.8336 11.3987 54.9909 11.58 54.0522 11.58C52.9429 11.58 51.9509 11.34 51.0762 10.86C50.2122 10.3693 49.5349 9.692 49.0442 8.828C48.5642 7.964 48.3242 6.97733 48.3242 5.868C48.3242 4.75867 48.5642 3.772 49.0442 2.908C49.5349 2.03333 50.2122 1.356 51.0762 0.875999C51.9402 0.385333 52.9269 0.139999 54.0362 0.139999C55.3802 0.139999 56.5109 0.465333 57.4283 1.116C58.3562 1.76667 58.9696 2.668 59.2682 3.82H56.2442ZM68.1277 9.516H63.9357L63.2637 11.5H60.3997L64.4637 0.268H67.6317L71.6958 11.5H68.7997L68.1277 9.516ZM67.4237 7.404L66.0317 3.292L64.6557 7.404H67.4237ZM80.5486 3.82C80.346 3.44667 80.0526 3.164 79.6686 2.972C79.2953 2.76933 78.8526 2.668 78.3406 2.668C77.4553 2.668 76.746 2.96133 76.2126 3.548C75.6793 4.124 75.4126 4.89733 75.4126 5.868C75.4126 6.90267 75.69 7.71333 76.2446 8.3C76.81 8.876 77.5833 9.164 78.5646 9.164C79.2366 9.164 79.802 8.99333 80.2606 8.652C80.73 8.31067 81.0713 7.82 81.2846 7.18H77.8126V5.164H83.7646V7.708C83.562 8.39067 83.2153 9.02533 82.7246 9.612C82.2446 10.1987 81.6313 10.6733 80.8846 11.036C80.138 11.3987 79.2953 11.58 78.3566 11.58C77.2473 11.58 76.2553 11.34 75.3806 10.86C74.5166 10.3693 73.8393 9.692 73.3486 8.828C72.8686 7.964 72.6286 6.97733 72.6286 5.868C72.6286 4.75867 72.8686 3.772 73.3486 2.908C73.8393 2.03333 74.5166 1.356 75.3806 0.875999C76.2446 0.385333 77.2313 0.139999 78.3406 0.139999C79.6846 0.139999 80.8153 0.465333 81.7326 1.116C82.6606 1.76667 83.274 2.668 83.5726 3.82H80.5486ZM88.1761 2.46V4.732H91.8401V6.844H88.1761V9.308H92.3201V11.5H85.4401V0.268H92.3201V2.46H88.1761ZM102.028 5.788C102.625 5.89467 103.132 6.20933 103.548 6.732C103.964 7.25467 104.172 7.84667 104.172 8.508C104.172 9.07333 104.022 9.58533 103.724 10.044C103.436 10.492 103.014 10.8493 102.46 11.116C101.905 11.372 101.26 11.5 100.524 11.5H96.0756V0.379999H100.316C101.073 0.379999 101.724 0.507999 102.268 0.764C102.812 1.02 103.222 1.36667 103.5 1.804C103.777 2.23067 103.916 2.71067 103.916 3.244C103.916 3.884 103.745 4.41733 103.404 4.844C103.062 5.27067 102.604 5.58533 102.028 5.788ZM97.8996 5.052H100.156C100.753 5.052 101.217 4.91867 101.548 4.652C101.889 4.37467 102.06 3.98 102.06 3.468C102.06 2.96667 101.889 2.57733 101.548 2.3C101.217 2.012 100.753 1.868 100.156 1.868H97.8996V5.052ZM100.364 10.012C100.982 10.012 101.468 9.86267 101.82 9.564C102.172 9.26533 102.348 8.84933 102.348 8.316C102.348 7.772 102.161 7.34 101.788 7.02C101.414 6.7 100.918 6.54 100.3 6.54H97.8996V10.012H100.364ZM108.138 10.028H111.898V11.5H106.314V0.379999H108.138V10.028ZM118.655 11.612C117.62 11.612 116.666 11.372 115.791 10.892C114.927 10.4013 114.239 9.724 113.727 8.86C113.226 7.98533 112.975 7.004 112.975 5.916C112.975 4.828 113.226 3.852 113.727 2.988C114.239 2.124 114.927 1.452 115.791 0.971999C116.666 0.481332 117.62 0.235999 118.655 0.235999C119.7 0.235999 120.655 0.481332 121.519 0.971999C122.394 1.452 123.082 2.124 123.583 2.988C124.084 3.852 124.335 4.828 124.335 5.916C124.335 7.004 124.084 7.98533 123.583 8.86C123.082 9.724 122.394 10.4013 121.519 10.892C120.655 11.372 119.7 11.612 118.655 11.612ZM118.655 10.028C119.391 10.028 120.047 9.86267 120.623 9.532C121.199 9.19067 121.647 8.71067 121.967 8.092C122.298 7.46267 122.463 6.73733 122.463 5.916C122.463 5.09467 122.298 4.37467 121.967 3.756C121.647 3.13733 121.199 2.66267 120.623 2.332C120.047 2.00133 119.391 1.836 118.655 1.836C117.919 1.836 117.263 2.00133 116.687 2.332C116.111 2.66267 115.658 3.13733 115.327 3.756C115.007 4.37467 114.847 5.09467 114.847 5.916C114.847 6.73733 115.007 7.46267 115.327 8.092C115.658 8.71067 116.111 9.19067 116.687 9.532C117.263 9.86267 117.919 10.028 118.655 10.028ZM125.682 5.916C125.682 4.828 125.933 3.852 126.434 2.988C126.946 2.124 127.634 1.452 128.498 0.971999C129.373 0.481332 130.327 0.235999 131.362 0.235999C132.546 0.235999 133.597 0.529332 134.514 1.116C135.442 1.692 136.114 2.51333 136.53 3.58H134.338C134.05 2.99333 133.65 2.556 133.138 2.268C132.626 1.98 132.034 1.836 131.362 1.836C130.626 1.836 129.97 2.00133 129.394 2.332C128.818 2.66267 128.365 3.13733 128.034 3.756C127.714 4.37467 127.554 5.09467 127.554 5.916C127.554 6.73733 127.714 7.45733 128.034 8.076C128.365 8.69467 128.818 9.17467 129.394 9.516C129.97 9.84667 130.626 10.012 131.362 10.012C132.034 10.012 132.626 9.868 133.138 9.58C133.65 9.292 134.05 8.85467 134.338 8.268H136.53C136.114 9.33467 135.442 10.156 134.514 10.732C133.597 11.308 132.546 11.596 131.362 11.596C130.317 11.596 129.362 11.356 128.498 10.876C127.634 10.3853 126.946 9.708 126.434 8.844C125.933 7.98 125.682 7.004 125.682 5.916Z" fill="#E8EDFF"/>
</svg>
