<svg width="18" height="18" viewBox="0 0 18 18" fill="none" xmlns="http://www.w3.org/2000/svg">
<g clip-path="url(#clip0_2917_5259)">
<path d="M7.57519 1.63491C8.51634 1.45145 9.48405 1.45145 10.4252 1.63491M13.2002 2.78242C13.9969 3.32111 14.682 4.00872 15.2177 4.80742M16.365 7.57493C16.5485 8.51607 16.5485 9.48379 16.365 10.4249M15.2175 13.1999C14.6788 13.9966 13.9912 14.6817 13.1925 15.2174M10.4252 16.3649C9.48403 16.5482 8.51635 16.5482 7.57519 16.3649M4.80009 15.2174C4.00339 14.6787 3.31832 13.9911 2.78259 13.1924M1.63516 10.4249C1.45169 9.48379 1.45169 8.51607 1.63516 7.57493M2.78259 4.79992C3.32128 4.00321 4.0089 3.31815 4.80759 2.78242" stroke="#12141B" stroke-width="2" stroke-linecap="round" stroke-linejoin="round"/>
</g>
<defs>
<clipPath id="clip0_2917_5259">
<rect width="18" height="18" fill="white"/>
</clipPath>
</defs>
</svg>
